<?xml version="1.0" encoding="utf-8"?>
<!-- Generator: Adobe Illustrator 22.0.1, SVG Export Plug-In . SVG Version: 6.00 Build 0)  -->
<svg version="1.1" id="Layer_1" xmlns="http://www.w3.org/2000/svg" xmlns:xlink="http://www.w3.org/1999/xlink" x="0px" y="0px"
	 viewBox="0 0 384.1 51.2" style="enable-background:new 0 0 384.1 51.2;" xml:space="preserve">
<style type="text/css">
	.st0{fill:none;}
	.st1{fill:#00ACEC;}
	.st2{fill:#FFFFFF;stroke:#FFFFFF;stroke-width:0.4079;stroke-miterlimit:10;}
	.st3{fill:none;stroke:#FFFFFF;stroke-width:1.2237;}
	.st4{fill:#FFFFFF;}
</style>
<rect x="0.3" y="0.7" class="st0" width="68.5" height="46.1"/>
<path class="st1" d="M57.5,45.1"/>
<g>
	<path class="st2" d="M316,45.8V37l6.1,9.8h0.6V36.1l1-1h-3.1l1,1v7.5l-5.3-8.5h-2.4l1,1v9.7l-1,1h3.1L316,45.8z M306.9,46.2
		c-2.4,0-3.2-2.8-3.2-5.2s0.8-5.2,3.2-5.2c2.4,0,3.2,2.8,3.2,5.2C310.1,43.4,309.3,46.2,306.9,46.2 M302.2,40.9c0,3,1.7,6.1,4.7,6.1
		s4.7-3.2,4.7-6.1c0-3-1.7-6.1-4.7-6.1C303.9,34.8,302.2,37.9,302.2,40.9 M296.9,45.9v-10h2.2l1.3,1.3v-2.1h-8.3v2.1l1.3-1.3h2.2v10
		l-0.9,0.9h3.2L296.9,45.9z M288.2,41.5v3.8c-0.3,0.3-0.8,0.8-1.9,0.8c-2.6,0-3.9-2.6-3.9-5.2c0-2.6,1.7-5.2,3.9-5.2
		c0.6,0,1,0.1,1.4,0.6l1.3,1.3v-2c-0.7-0.4-1.4-0.7-2.7-0.7c-3.2,0-5.5,2.9-5.5,6s2.3,6,5.5,6c1.8,0,2.6-0.4,3.2-0.9v-4.6l0.9-0.9
		h-3.2L288.2,41.5z M270.7,45.8V37l6.2,9.8h0.5V36.1l1-1h-3.1l1,1v7.5l-5.3-8.5h-2.4l1,1v9.7l-1,1h3.1L270.7,45.8z M262.3,35.1
		l0.9,0.9v9.9l-0.9,0.9h3.2l-0.9-0.9V36l0.9-0.9C265.5,35.1,262.3,35.1,262.3,35.1z M251.8,40.9h4.9v5l-0.9,0.9h3.2l-0.9-0.9V36
		l0.9-0.9h-3.2l0.9,0.9v4.1h-4.9V36l0.9-0.9h-3.1l0.9,0.9v9.9l-0.9,0.9h3.2l-0.9-0.9v-5H251.8z M246.5,43.6c0-1.2-0.5-1.9-1.1-2.3
		l-2.4-1.7c-0.9-0.6-1.3-1.4-1.3-2c0-1.2,1.1-1.7,1.7-1.7c0.3,0,0.6,0.1,0.8,0.1l1,1.1l1.1-1.6l-2.3-0.4c-0.2,0-0.3-0.1-0.6-0.1
		c-2.1,0-3,1.8-3,2.9c0,0.9,0.5,1.9,1.5,2.7l2.4,1.7c0.7,0.5,0.8,1.1,0.8,1.7c0,1-0.6,2.1-2,2.1c-0.3,0-0.6-0.1-0.8-0.2l-1.1-1.3
		l-1,1.8l2.3,0.4c0,0,0.4,0.1,0.7,0.1C244.7,47,246.5,45.8,246.5,43.6 M233.4,37.7l1.6,4.9h-3.3L233.4,37.7z M230.5,45.9l0.9-2.5
		h3.9l0.8,2.5l-0.9,0.9h3.3l-0.9-1L233.9,35h-0.6l-3.7,10.9l-1,1h2.8L230.5,45.9z M218,46.8l2.7-8.5l2.6,8.5h0.6l3.4-10.8l1-0.9
		h-2.8l0.9,0.9l-2.5,8.1l-2.4-8.1l0.9-0.9h-3.3L220,36l0.2,0.8l-2.3,7.3l-2.4-8.1l0.9-0.9h-3.3l1,0.9l3.3,10.8
		C217.4,46.8,218,46.8,218,46.8z M200.6,39.8l-0.4,0.4v0.2h1.4c-0.2,1.5-0.4,2.8-0.7,4.9c-0.4,3.1-0.8,4.2-1.1,4.5
		c-0.1,0.1-0.3,0.2-0.4,0.2c-0.2,0-0.5-0.2-0.7-0.2c-0.2-0.1-0.4,0-0.5,0.1s-0.3,0.4-0.3,0.6c0,0.3,0.4,0.5,0.7,0.5
		c0.3,0,1.1-0.3,1.8-1.1c0.6-0.7,1.3-2.3,2-6c0.1-0.7,0.2-1.4,0.5-3.2l1.7-0.2l0.4-0.4h-2c0.5-3.1,0.9-4,1.6-4
		c0.5,0,0.9,0.2,1.3,0.5c0.1,0.1,0.3,0.1,0.5,0c0.1-0.1,0.3-0.4,0.3-0.6c0-0.3-0.4-0.7-1-0.7c-1,0-2,0.6-2.7,1.4
		c-0.6,0.8-1.1,2-1.3,3.4h-1.1V39.8z M193.1,44.1c0-2.5,1.2-3.8,1.8-4c0.1-0.1,0.4-0.1,0.5-0.1c0.8,0,1.3,0.6,1.3,1.9
		c0,2.2-1.1,4.1-1.8,4.3c-0.1,0.1-0.3,0.1-0.5,0.1C193.5,46.4,193.1,45.4,193.1,44.1 M195.9,39.4c-0.4,0-1.1,0.2-1.8,0.6
		c-1.1,0.7-2.4,2.2-2.4,4.5c0,1.2,0.5,2.5,2.1,2.5c0.7,0,1.8-0.5,2.5-1.1c1.1-1,1.7-2.7,1.7-4.2C198.1,40.3,197.3,39.4,195.9,39.4
		 M176.7,36l3,5.4v4.5l-0.9,0.9h3.2l-0.9-0.9v-4.5l3-5.3l1-1h-2.9l0.9,0.9l-2.5,4.4l-2.4-4.4l0.9-0.9h-3.3L176.7,36z M170.5,45.9
		v-10h2.2l1.3,1.3v-2.1h-8.3v2.1l1.3-1.3h2.2v10l-0.9,0.9h3.2L170.5,45.9z M159.9,35.1l0.9,0.9v9.9l-0.9,0.9h3.2l-0.9-0.9V36
		l0.9-0.9C163.1,35.1,159.9,35.1,159.9,35.1z M156.4,43.6c0-1.2-0.5-1.9-1.1-2.3l-2.4-1.7c-0.9-0.6-1.3-1.4-1.3-2
		c0-1.2,1.1-1.7,1.7-1.7c0.3,0,0.6,0.1,0.8,0.1l1,1.1l1.1-1.6l-2.3-0.4c-0.2,0-0.3-0.1-0.6-0.1c-2.1,0-3,1.8-3,2.9
		c0,0.9,0.5,1.9,1.5,2.7l2.4,1.7c0.7,0.5,0.8,1.1,0.8,1.7c0,1-0.6,2.1-2,2.1c-0.3,0-0.6-0.1-0.8-0.2l-1.1-1.3l-1,1.8l2.3,0.4
		c0,0,0.4,0.1,0.7,0.1C154.6,47,156.4,45.8,156.4,43.6 M141.3,35.9h1.4c1.3,0,2.3,1.1,2.3,2.4c0,1.2-1,2.2-2.3,2.2h-1.4V35.9z
		 M141.3,45.9v-4.5h1.8l2.9,5.5h2l-0.9-0.9l-2.6-4.8c1.3-0.4,2.2-1.6,2.2-2.8c0-2-1.9-3.3-3.8-3.3h-3.7l0.9,0.9v9.9l-0.9,0.9h3.2
		L141.3,45.9z M136,46.8v-2.2l-1.3,1.3h-3.6V41h2.7l0.9,0.9v-2.8l-0.9,0.9h-2.7v-4.2h3.6l1.3,1.3V35h-7l0.9,0.9v9.9l-0.9,0.9
		L136,46.8L136,46.8z M120.8,35.1h-3.3l1,0.9l3.3,10.8h0.6l3.4-10.8l1-0.9H124l0.9,0.9l-2.5,8.1L120,36L120.8,35.1z M111.6,35.1
		l0.9,0.9v9.9l-0.9,0.9h3.2l-0.9-0.9V36l0.9-0.9C114.8,35.1,111.6,35.1,111.6,35.1z M100.7,45.8V37l6.3,9.8h0.4V36.1l1-1h-3.1l1,1
		v7.5l-5.3-8.5h-2.4l1,1v9.7l-1,1h3.1L100.7,45.8z M87.4,43.7c0,1.9,1.6,3.4,3.7,3.4c1.9,0,3.8-1.4,3.8-3.4v-7.6l1-1h-3.1l1,1v7.6
		c0,1.4-1.1,2.4-2.4,2.4c-1.4,0-2.6-1.1-2.6-2.4v-7.6l1-1h-3.4l1,1V43.7z"/>
</g>
<line class="st3" x1="86" y1="25.4" x2="384.1" y2="25.4"/>
<path class="st4" d="M50.5,0.7V9h5.9l-6.5,24.4c0,0-8-32.3-8.1-32.7h-8.5c-0.1,0.4-8.8,32.7-8.8,32.7L18.5,9h6.1V0.7H0V9h5.4
	c0,0,9.4,37.5,9.5,37.9h13.2c0.1-0.4,6.3-23.9,6.3-23.9s5.9,23.4,6,23.9h13.2c0.1-0.4,10-37.9,10-37.9H69V0.7
	C69,0.7,50.5,0.7,50.5,0.7z"/>
<g>
	<path class="st2" d="M95.6,16.5l1.4-1.4V8.6h-6v6.5l1.4,1.4h-5.2l1.4-1.4V2l-1.4-1.4h5.2L91,2v5.4h6V2l-1.4-1.4h5.2L99.4,2v13.1
		l1.4,1.4H95.6z"/>
	<path class="st2" d="M110.4,16.8c-4.2,0-6.8-4.1-6.8-8.3s2.6-8.3,6.8-8.3s6.8,4.1,6.8,8.3S114.6,16.8,110.4,16.8z M110.4,1.6
		c-3,0-3.9,3.8-3.9,7c0,3.1,0.9,7,3.9,7s3.9-3.8,3.9-7S113.5,1.6,110.4,1.6z"/>
	<path class="st2" d="M131.9,2v10c0,3.1-2.5,4.8-5.2,4.8c-2.7,0-5.2-1.7-5.2-4.8V2l-1.4-1.4h5.2L123.9,2v10c0,2.1,1.5,3.4,3.3,3.4
		c1.8,0,3.3-1.3,3.3-3.4V2l-1.4-1.4h4.3L131.9,2z"/>
	<path class="st2" d="M140,16.7c-0.5,0-1,0-1.4-0.1l-3.3-0.6l1.6-2.9l1.7,2.2c0.4,0.2,1,0.3,1.5,0.3c2.1,0,2.7-1.8,2.7-2.8
		c0-1.1-0.7-1.9-1.4-2.3l-3.2-2.1c-1.3-0.9-2.1-2.2-2.1-3.6c0-2.9,2.4-4.3,4.5-4.3c0.7,0,1.4,0.1,2,0.2l2.4,0.4l-1.6,2.7L142,2.1
		c-0.3-0.3-0.7-0.5-1.2-0.5c-1.5,0-2.4,1.2-2.4,2.2c0,0.9,0.4,1.7,1.6,2.5l2.8,1.9c1.2,0.8,2.3,1.9,2.3,3.6
		C145.2,14.3,143.6,16.7,140,16.7z"/>
	<path class="st2" d="M148.2,16.5l1.4-1.4V2l-1.4-1.4h5.2L152,2v13.1l1.4,1.4H148.2z"/>
	<path class="st2" d="M168.3,2v15.8l-9.2-14.3v11.6l1.4,1.4h-4.3l1.4-1.4V2l-1.4-1.4h4l6.6,10.3v-9l-1.4-1.4h4.3L168.3,2z"/>
	<path class="st2" d="M184.9,9.3v6.3c-1.1,0.6-2.2,1.2-4.8,1.2c-4.3,0-7.7-3.7-7.7-8.2s3.5-8.2,7.8-8.2c1.8,0,3,0.4,4,0.9v3.3
		L182,2.4c-0.5-0.5-1.1-0.8-1.8-0.8c-3,0-4.8,3.6-4.8,6.9s1.8,6.9,4.8,6.9c1,0,1.8-0.4,2.2-0.8V9.2L181,7.8h5.2L184.9,9.3z"/>
	<path class="st2" d="M204.8,9.1V9l-1.3-1.3h3.8L206,9v0.2c0,1.6-0.2,3-0.7,4.1l1.5,1.9l1.4,1.4h-3.3l-0.9-1.2c-1,0.9-2.3,1.5-4,1.5
		c-2.8,0-5-1.7-5-4.5c0-2.3,1.6-3.7,3.3-4.4c-1-1.4-1.6-2.6-1.6-3.8c0-2.5,2.4-3.7,4.2-3.7c1.3,0,2.3,0.3,3.6,0.9v3l-2-2
		c-0.5-0.5-0.8-0.8-1.5-0.8c-1,0-1.9,0.9-1.9,2.3c0,1.2,0.6,2.2,1.5,3.4l3.8,4.9C204.7,11.2,204.8,10.2,204.8,9.1z M197.5,12.1
		c0,2.1,1.2,3.4,3,3.4c0.9,0,1.9-0.3,2.8-1.2L199,8.7C198,9.6,197.5,10.7,197.5,12.1z"/>
	<path class="st2" d="M225.3,1.9H221v5.4h3.1l1.4-1.4v4l-1.4-1.4H221V15l1.4,1.4h-5.2l1.4-1.4V2l-1.4-1.4h9.9v3.2L225.3,1.9z"/>
	<path class="st2" d="M236.4,16.8c-4.2,0-6.8-4.1-6.8-8.3s2.6-8.3,6.8-8.3c4.2,0,6.8,4.1,6.8,8.3S240.6,16.8,236.4,16.8z M236.4,1.6
		c-3,0-3.9,3.8-3.9,7c0,3.1,0.9,7,3.9,7s3.9-3.8,3.9-7C240.3,5.4,239.4,1.6,236.4,1.6z"/>
	<path class="st2" d="M253.1,16.8c-4.2,0-6.8-4.1-6.8-8.3s2.6-8.3,6.8-8.3c4.2,0,6.8,4.1,6.8,8.3S257.3,16.8,253.1,16.8z M253.1,1.6
		c-3,0-3.9,3.8-3.9,7c0,3.1,0.9,7,3.9,7s3.9-3.8,3.9-7S256.1,1.6,253.1,1.6z"/>
	<path class="st2" d="M268.7,16.5h-5.9l1.4-1.4V2l-1.4-1.4h5.9c4.9,0,7.3,3.9,7.3,7.9C276,12.6,273.6,16.5,268.7,16.5z M268.7,1.9
		h-2.1v13.3h2.2c3,0,4.4-3.1,4.4-6.6C273.1,5,271.8,1.9,268.7,1.9z"/>
	<path class="st2" d="M289.7,16.7c-0.5,0-1,0-1.4-0.1L285,16l1.6-2.9l1.7,2.2c0.4,0.2,1,0.3,1.5,0.3c2.1,0,2.7-1.8,2.7-2.8
		c0-1.1-0.7-1.9-1.4-2.3l-3.2-2.1c-1.3-0.9-2.1-2.2-2.1-3.6c0-2.9,2.4-4.3,4.5-4.3c0.7,0,1.4,0.1,2,0.2l2.4,0.4l-1.6,2.7l-1.4-1.7
		c-0.3-0.3-0.7-0.5-1.2-0.5c-1.5,0-2.4,1.2-2.4,2.2c0,0.9,0.4,1.7,1.6,2.5l2.8,1.9c1.2,0.8,2.3,1.9,2.3,3.6
		C294.8,14.3,293.2,16.7,289.7,16.7z"/>
	<path class="st2" d="M297.6,16.5l1.4-1.4V2l-1.4-1.4h9.9v3.2L305.7,2h-4.3v5.4h3.1l1.4-1.4v4l-1.4-1.4h-3.1v6.5h4.3l1.8-1.8v3.1
		L297.6,16.5L297.6,16.5z"/>
	<path class="st2" d="M319.9,16.5l-3.8-7.3H314v5.9l1.4,1.4h-5.2l1.4-1.4V2l-1.4-1.4h5.7c2.7,0,5.5,1.4,5.5,4.3c0,1.7-1.2,3.2-3,3.8
		l3.5,6.4l1.4,1.4H319.9z M315.9,1.9H314v6h1.9c1.5,0,2.7-1.2,2.7-2.9C318.6,3.2,317.5,1.9,315.9,1.9z"/>
	<path class="st2" d="M335.7,2l-4.6,14.5h-1.5L325.1,2l-1.4-1.4h5.3l-1.3,1.3l3.2,10.6l3.3-10.6l-1.3-1.3h4.3L335.7,2z"/>
	<path class="st2" d="M338.9,16.5l1.4-1.4V2l-1.4-1.4h5.2L342.7,2v13.1l1.4,1.4H338.9z"/>
	<path class="st2" d="M353.9,16.7c-4.1,0-6.7-4-6.7-8.2s2.7-8.2,6.7-8.2c2.1,0,3.2,0.5,4,0.9v3.2l-2.2-2.2c-0.5-0.5-1.1-0.8-1.8-0.8
		c-3,0-3.8,3.8-3.8,6.9s0.9,6.9,3.8,6.9c0.8,0,1.3-0.2,1.8-0.8l2.2-2.2v3.6C357.1,16.3,356.1,16.7,353.9,16.7z"/>
	<path class="st2" d="M360.6,16.5l1.4-1.4V2l-1.4-1.4h9.9v3.2L368.7,2h-4.3v5.4h3.1l1.4-1.4v4l-1.4-1.4h-3.1v6.5h4.3l1.8-1.8v3.1
		L360.6,16.5L360.6,16.5z"/>
	<path class="st2" d="M377.4,16.7c-0.5,0-1,0-1.4-0.1l-3.3-0.6l1.6-2.9l1.7,2.2c0.4,0.2,1,0.3,1.5,0.3c2.1,0,2.7-1.8,2.7-2.8
		c0-1.1-0.7-1.9-1.4-2.3l-3.2-2.1c-1.3-0.9-2.1-2.2-2.1-3.6c0-2.9,2.4-4.3,4.5-4.3c0.7,0,1.4,0.1,2,0.2l2.4,0.4l-1.6,2.7l-1.4-1.7
		c-0.3-0.3-0.7-0.5-1.2-0.5c-1.5,0-2.4,1.2-2.4,2.2c0,0.9,0.4,1.7,1.6,2.5l2.8,1.9c1.2,0.8,2.3,1.9,2.3,3.6
		C382.5,14.3,381,16.7,377.4,16.7z"/>
</g>
</svg>
