<svg xmlns="http://www.w3.org/2000/svg" viewBox="5 3 730 125">
	<g>
		<path fill="#FFFFFF" stroke="#FFFFFF" stroke-miterlimit="10" d="M568.6,114.8V93.2l15,24.1h1.5V90.9l2.5-2.5H580l2.5,2.5v18.3
			l-13-20.8h-6l2.4,2.5v23.9l-2.4,2.5h7.5L568.6,114.8z M546.3,115.8c-5.8,0-7.8-6.9-7.8-12.9c0-6,2-12.9,7.8-12.9
			c5.8,0,7.8,6.9,7.8,12.9C554.1,108.9,552.1,115.8,546.3,115.8 M534.7,102.9c0,7.3,4.2,15.1,11.5,15.1c7.4,0,11.6-7.7,11.6-15.1
			c0-7.3-4.2-15.1-11.6-15.1C538.9,87.8,534.7,95.5,534.7,102.9 M521.7,115V90.6h5.5l3.1,3.1v-5.2h-20.3v5.2l3.1-3.1h5.4V115
			l-2.2,2.3h7.7L521.7,115z M500.3,104.2v9.3c-0.7,0.7-2.1,2.1-4.7,2.1c-6.4,0-9.6-6.5-9.6-12.7c0-6.3,4.1-12.7,9.6-12.7
			c1.5,0,2.5,0.3,3.5,1.4l3.2,3.1v-5c-1.7-0.9-3.4-1.7-6.7-1.7c-7.9,0-13.4,7-13.4,14.8c0,7.6,5.5,14.8,13.4,14.8
			c4.5,0,6.4-1.1,7.9-2.1v-11.4l2.3-2.3H498L500.3,104.2z M457.5,114.8V93.2l15.2,24.1l1.3,0V90.9l2.5-2.5H469l2.5,2.5v18.3l-13-20.8
			h-6l2.4,2.5v23.9l-2.4,2.5h7.5L457.5,114.8z M436.8,88.5l2.3,2.3V115l-2.3,2.3h7.8l-2.3-2.3V90.8l2.3-2.3H436.8z M411.2,102.8h12.1
			V115l-2.3,2.3h7.8l-2.3-2.3V90.8l2.3-2.3H421l2.3,2.3v9.9h-12.1v-9.9l2.3-2.3h-7.7l2.2,2.3V115l-2.2,2.3h7.7l-2.3-2.3V102.8z
			M398.2,109.3c0-2.8-1.3-4.6-2.7-5.5l-5.9-4.3c-2.1-1.5-3.2-3.5-3.2-4.9c0-3,2.6-4.1,4.2-4.1c0.8,0,1.4,0.3,1.9,0.3l2.5,2.7l2.7-4
			l-5.7-1.1c-0.4-0.1-0.6-0.1-1.4-0.1c-5,0-7.3,4.3-7.3,7.1c0,2.2,1.1,4.7,3.7,6.6l5.9,4.3c1.6,1.1,2.1,2.8,2.1,4.2
			c0,2.4-1.5,5.1-4.8,5.1c-0.8,0-1.5-0.1-2-0.4l-2.7-3.2l-2.5,4.5l5.5,1.1c0,0,0.9,0.2,1.7,0.2C393.6,117.7,398.2,114.8,398.2,109.3
			M365.9,94.9l4,11.9h-8.1L365.9,94.9z M358.9,115.1l2.1-6.1h9.5l2,6.1l-2.3,2.2h8.2l-2.3-2.3l-9-26.5h-1.5l-9.1,26.5l-2.3,2.3h6.9
			L358.9,115.1z M328.3,117.3l6.6-20.9l6.4,20.9h1.5l8.4-26.6l2.4-2.3h-6.9l2.2,2.2l-6.1,20l-5.9-20l2.2-2.2h-8.2l2.3,2.3l0.6,1.9
			l-5.5,18l-5.9-20l2.2-2.2h-8.2l2.3,2.3l8.1,26.6H328.3z M285.5,100l-1.1,1.1l0.1,0.4h3.4c-0.5,3.7-1,6.8-1.8,12
			c-1.1,7.6-2,10.3-2.8,10.9c-0.2,0.2-0.7,0.4-1,0.4c-0.5,0-1.3-0.4-1.8-0.6c-0.5-0.2-0.9,0-1.1,0.3c-0.3,0.4-0.7,0.9-0.7,1.4
			c0,0.8,1.1,1.2,1.7,1.2c0.8,0,2.7-0.7,4.5-2.8c1.4-1.7,3.2-5.6,4.8-14.8c0.3-1.7,0.6-3.4,1.3-7.9l4.1-0.4l0.9-1.1h-4.8
			c1.2-7.5,2.2-9.8,4-9.8c1.2,0,2.2,0.5,3.1,1.3c0.3,0.3,0.7,0.3,1.1,0c0.3-0.3,0.8-0.9,0.8-1.5c0-0.8-1.1-1.7-2.4-1.7
			c-2.4,0-4.8,1.4-6.5,3.4c-1.6,1.9-2.6,5-3.2,8.3H285.5z M267.2,110.7c0-6,3-9.3,4.3-9.8c0.4-0.2,0.9-0.3,1.3-0.3
			c2,0,3.2,1.5,3.2,4.7c0.1,5.3-2.7,10.1-4.4,10.6c-0.3,0.1-0.9,0.3-1.3,0.3C268.1,116.1,267.2,113.7,267.2,110.7 M274.1,99
			c-1.1,0-2.7,0.5-4.4,1.5c-2.8,1.7-5.9,5.4-5.9,11.1c0,2.8,1.3,6,5.1,6c1.8,0,4.3-1.2,6.1-2.7c2.7-2.4,4.3-6.6,4.3-10.2
			C279.3,101.3,277.6,99,274.1,99 M227.1,90.8l7.3,13.2V115l-2.3,2.3h7.8l-2.3-2.3v-11.1l7.4-13.1l2.4-2.3h-7.1l2.3,2.2l-6.1,10.8
			l-5.8-10.8l2.2-2.2h-8.2L227.1,90.8z M211.8,115V90.6h5.5l3.1,3.1v-5.2h-20.3v5.2l3.1-3.1h5.4V115l-2.2,2.3h7.7L211.8,115z
			M185.7,88.5l2.3,2.3V115l-2.3,2.3h7.8l-2.3-2.3V90.8l2.3-2.3H185.7z M177.3,109.3c0-2.8-1.3-4.6-2.7-5.5l-5.9-4.3
			c-2.1-1.5-3.2-3.5-3.2-4.9c0-3,2.6-4.1,4.2-4.1c0.8,0,1.4,0.3,1.9,0.3l2.5,2.7l2.7-4l-5.7-1.1c-0.4-0.1-0.6-0.1-1.4-0.1
			c-5,0-7.3,4.3-7.3,7.1c0,2.2,1.1,4.7,3.7,6.6l5.9,4.3c1.6,1.1,2.1,2.8,2.1,4.2c0,2.4-1.5,5.1-4.8,5.1c-0.8,0-1.5-0.1-2-0.4
			l-2.7-3.2l-2.5,4.5l5.5,1.1c0,0,0.9,0.2,1.7,0.2C172.8,117.7,177.3,114.8,177.3,109.3 M140.2,90.6h3.5c3.1,0,5.5,2.6,5.5,5.8
			c0,3-2.5,5.3-5.5,5.3h-3.5V90.6z M140.2,115v-11.2h4.4l7,13.5h4.8l-2.3-2.3l-6.5-11.8c3.2-1,5.4-4,5.4-6.7c0-4.9-4.5-8-9.3-8h-9
			l2.3,2.3V115l-2.3,2.3h7.7L140.2,115z M127.3,117.3V112l-3.1,3.1h-8.8V103h6.5l2.3,2.3v-6.8l-2.3,2.3h-6.5V90.6h8.8l3.1,3.1v-5.2
			H110l2.3,2.3V115l-2.3,2.3H127.3z M89.8,88.5h-8.2l2.3,2.3l8.1,26.6h1.5l8.4-26.6l2.3-2.3h-6.9l2.3,2.2l-6.1,20l-5.9-20L89.8,88.5z
			M67.4,88.5l2.3,2.3V115l-2.3,2.3h7.8l-2.3-2.3V90.8l2.3-2.3H67.4z M40.6,114.8V93.2l15.5,24.1h1V90.9l2.5-2.5H52l2.5,2.5v18.3
			l-13-20.8h-6l2.4,2.5v23.9l-2.4,2.5h7.5L40.6,114.8z M8.1,109.6c0,4.7,4,8.4,9,8.4c4.7,0,9.3-3.5,9.3-8.4V90.9l2.4-2.5h-7.5
			l2.5,2.5v18.6c0,3.3-2.6,6-6,6c-3.4,0-6.4-2.6-6.4-6V90.9l2.5-2.5H5.6l2.5,2.5V109.6z"/>
	</g>
	<line fill="none" stroke="#FFFFFF" stroke-width="3" x1="4.6" y1="64.9" x2="735.4" y2="64.9"/>
	<g>
		<path fill="#FFFFFF" stroke="#FFFFFF" stroke-miterlimit="10" d="M28.1,43l3.3-3.4V23.7H16.8v15.9l3.4,3.4H7.5l3.4-3.4V7.4L7.5,4.1
			h12.6l-3.4,3.4v13.1h14.7V7.4l-3.3-3.4h12.6l-3.4,3.4v32.2l3.4,3.4H28.1z"/>
		<path fill="#FFFFFF" stroke="#FFFFFF" stroke-miterlimit="10" d="M64.5,43.8c-10.3,0-16.7-10.1-16.7-20.3S54.3,3.2,64.5,3.2
			s16.7,10.1,16.7,20.3S74.8,43.8,64.5,43.8z M64.5,6.4c-7.4,0-9.6,9.4-9.6,17.1c0,7.7,2.1,17.1,9.6,17.1c7.4,0,9.6-9.4,9.6-17.1
			C74.1,15.8,71.9,6.4,64.5,6.4z"/>
		<path fill="#FFFFFF" stroke="#FFFFFF" stroke-miterlimit="10" d="M117.1,7.4V32c0,7.6-6.2,11.8-12.9,11.8
			c-6.6,0-12.9-4.2-12.9-11.8V7.4L88,4.1h12.6l-3.4,3.4V32c0,5.2,3.7,8.3,8,8.3c4.3,0,8-3.1,8-8.3V7.4L110,4.1h10.4L117.1,7.4z"/>
		<path fill="#FFFFFF" stroke="#FFFFFF" stroke-miterlimit="10" d="M137.1,43.4c-1.2,0-2.5-0.1-3.4-0.3l-8.1-1.4l3.9-7.1l4.3,5.4
			c0.9,0.5,2.5,0.8,3.7,0.8c5.2,0,6.7-4.4,6.7-6.9c0-2.8-1.8-4.6-3.5-5.7l-8-5.2c-3.3-2.1-5.2-5.3-5.2-8.9c0-7.1,5.8-10.4,11.1-10.4
			c1.8,0,3.4,0.3,4.8,0.6l5.9,1.1l-3.9,6.6L142,7.6c-0.8-0.7-1.7-1.2-3-1.2c-3.7,0-5.9,2.9-5.9,5.4c0,2.1,1,4.1,4,6.1l6.9,4.6
			c3,2,5.7,4.6,5.7,8.8C149.6,37.6,145.9,43.4,137.1,43.4z"/>
		<path fill="#FFFFFF" stroke="#FFFFFF" stroke-miterlimit="10" d="M157,43l3.4-3.4V7.4L157,4.1h12.6l-3.4,3.4v32.2l3.4,3.4H157z"/>
		<path fill="#FFFFFF" stroke="#FFFFFF" stroke-miterlimit="10" d="M206.4,7.4v38.7l-22.5-35v28.5l3.3,3.4h-10.4l3.4-3.4V7.4
			l-3.4-3.4h9.7l16.1,25.3v-22l-3.4-3.4h10.4L206.4,7.4z"/>
		<path fill="#FFFFFF" stroke="#FFFFFF" stroke-miterlimit="10" d="M247,25.3v15.4c-2.7,1.6-5.3,2.9-11.7,2.9
			c-10.5,0-18.8-9.2-18.8-20s8.5-20,19.1-20c4.5,0,7.4,1,9.8,2.3v8L240,8.5c-1.3-1.3-2.6-1.9-4.4-1.9c-7.5,0-11.9,8.8-11.9,16.9
			c0,8.1,4.4,16.9,11.9,16.9c2.5,0,4.5-0.9,5.5-1.9V25.3l-3.3-3.4h12.6L247,25.3z"/>
		<path fill="#FFFFFF" stroke="#FFFFFF" stroke-miterlimit="10" d="M295.9,24.8v-0.3l-3.1-3.1h9.4l-3.1,3.1v0.4
			c0,3.8-0.5,7.3-1.7,10.1l3.7,4.7l3.4,3.4h-8.1l-2.3-2.9c-2.4,2.3-5.7,3.6-9.9,3.6c-6.9,0-12.3-4.1-12.3-11c0-5.5,3.9-9.2,8.1-10.8
			c-2.5-3.4-3.8-6.5-3.8-9.3c0-6.2,5.8-9.1,10.4-9.1c3.2,0,5.6,0.7,8.8,2.3V13l-5-5c-1.2-1.2-2-1.9-3.8-1.9c-2.5,0-4.6,2.1-4.6,5.5
			c0,3,1.4,5.3,3.8,8.3l9.3,11.9C295.6,29.9,295.9,27.6,295.9,24.8z M278,32.2c0,5.2,3,8.5,7.5,8.5c2.1,0,4.7-0.8,6.8-3L281.6,24
			C279.2,26.2,278,28.7,278,32.2z"/>
		<path fill="#FFFFFF" stroke="#FFFFFF" stroke-miterlimit="10" d="M346.1,7.3h-10.7v13.3h7.6l3.4-3.4v9.9l-3.4-3.4h-7.6v15.9
			l3.4,3.4h-12.6l3.4-3.4V7.4l-3.4-3.4h24.4v7.6L346.1,7.3z"/>
		<path fill="#FFFFFF" stroke="#FFFFFF" stroke-miterlimit="10" d="M373.3,43.8c-10.3,0-16.7-10.1-16.7-20.3S363,3.2,373.3,3.2
			c10.3,0,16.7,10.1,16.7,20.3S383.6,43.8,373.3,43.8z M373.3,6.4c-7.4,0-9.6,9.4-9.6,17.1c0,7.7,2.1,17.1,9.6,17.1
			c7.4,0,9.6-9.4,9.6-17.1C382.9,15.8,380.7,6.4,373.3,6.4z"/>
		<path fill="#FFFFFF" stroke="#FFFFFF" stroke-miterlimit="10" d="M414.3,43.8c-10.3,0-16.7-10.1-16.7-20.3S404,3.2,414.3,3.2
			c10.3,0,16.7,10.1,16.7,20.3S424.5,43.8,414.3,43.8z M414.3,6.4c-7.4,0-9.6,9.4-9.6,17.1c0,7.7,2.1,17.1,9.6,17.1
			c7.4,0,9.6-9.4,9.6-17.1C423.8,15.8,421.7,6.4,414.3,6.4z"/>
		<path fill="#FFFFFF" stroke="#FFFFFF" stroke-miterlimit="10" d="M452.6,43H438l3.4-3.4V7.4L438,4.1h14.6c12,0,17.8,9.5,17.8,19.4
			C470.4,33.5,464.6,43,452.6,43z M452.6,7.3h-5.3v32.5h5.3c7.5,0,10.8-7.5,10.8-16.3C463.4,14.8,460.1,7.3,452.6,7.3z"/>
		<path fill="#FFFFFF" stroke="#FFFFFF" stroke-miterlimit="10" d="M503.9,43.4c-1.2,0-2.5-0.1-3.4-0.3l-8.1-1.4l3.9-7.1l4.3,5.4
			c0.9,0.5,2.5,0.8,3.7,0.8c5.2,0,6.7-4.4,6.7-6.9c0-2.8-1.8-4.6-3.5-5.7l-8-5.2c-3.3-2.1-5.2-5.3-5.2-8.9c0-7.1,5.8-10.4,11.1-10.4
			c1.8,0,3.4,0.3,4.8,0.6l5.9,1.1l-3.9,6.6l-3.5-4.3c-0.8-0.7-1.7-1.2-3-1.2c-3.7,0-5.9,2.9-5.9,5.4c0,2.1,1,4.1,4,6.1l6.9,4.6
			c3,2,5.7,4.6,5.7,8.8C516.5,37.6,512.7,43.4,503.9,43.4z"/>
		<path fill="#FFFFFF" stroke="#FFFFFF" stroke-miterlimit="10" d="M523.3,43l3.4-3.4V7.4l-3.4-3.4h24.4v7.6l-4.4-4.4h-10.7v13.3h7.6
			l3.4-3.4v9.9l-3.4-3.4h-7.6v16h10.7l4.4-4.4V43H523.3z"/>
		<path fill="#FFFFFF" stroke="#FFFFFF" stroke-miterlimit="10" d="M578,43l-9.3-17.9h-5.2v14.5l3.4,3.4h-12.6l3.4-3.4V7.4l-3.4-3.4
			h14c6.6,0,13.4,3.4,13.4,10.7c0,4.1-3,7.9-7.2,9.2l8.6,15.7l3.4,3.4H578z M568.2,7.3h-4.7v14.7h4.7c3.7,0,6.6-2.9,6.6-7.2
			C574.9,10.3,572.1,7.3,568.2,7.3z"/>
		<path fill="#FFFFFF" stroke="#FFFFFF" stroke-miterlimit="10" d="M616.7,7.5L605.4,43h-3.6l-11-35.5l-3.4-3.4h13l-3.3,3.3l7.8,26
			l8-26l-3.3-3.3h10.4L616.7,7.5z"/>
		<path fill="#FFFFFF" stroke="#FFFFFF" stroke-miterlimit="10" d="M624.5,43l3.4-3.4V7.4l-3.4-3.4h12.6l-3.4,3.4v32.2l3.4,3.4H624.5
			z"/>
		<path fill="#FFFFFF" stroke="#FFFFFF" stroke-miterlimit="10" d="M661.3,43.5c-10.1,0-16.5-9.8-16.5-20c0-10.3,6.6-20,16.5-20
			c5.1,0,7.7,1.3,9.8,2.3v8l-5.3-5.3c-1.3-1.3-2.6-1.9-4.5-1.9c-7.4,0-9.4,9.3-9.4,16.9s2.3,16.9,9.4,16.9c1.9,0,3.2-0.5,4.5-1.9
			l5.3-5.3v8C669.2,42.4,666.7,43.5,661.3,43.5z"/>
		<path fill="#FFFFFF" stroke="#FFFFFF" stroke-miterlimit="10" d="M677.7,43l3.3-3.4V7.4l-3.3-3.4h24.4v7.6l-4.4-4.4H687v13.3h7.6
			l3.4-3.4v9.9l-3.4-3.4H687v16h10.7l4.4-4.4V43H677.7z"/>
		<path fill="#FFFFFF" stroke="#FFFFFF" stroke-miterlimit="10" d="M719,43.4c-1.2,0-2.5-0.1-3.4-0.3l-8.1-1.4l3.9-7.1l4.3,5.4
			c0.9,0.5,2.5,0.8,3.7,0.8c5.2,0,6.7-4.4,6.7-6.9c0-2.8-1.8-4.6-3.5-5.7l-8-5.2c-3.3-2.1-5.2-5.3-5.2-8.9c0-7.1,5.8-10.4,11.1-10.4
			c1.8,0,3.4,0.3,4.8,0.6l5.9,1.1l-3.9,6.6l-3.5-4.3c-0.8-0.7-1.7-1.2-3-1.2c-3.7,0-5.9,2.9-5.9,5.4c0,2.1,1,4.1,4,6.1l6.9,4.6
			c3,2,5.7,4.6,5.7,8.8C731.6,37.6,727.8,43.4,719,43.4z"/>
	</g>
</svg>
